<svg xmlns="http://www.w3.org/2000/svg" xmlns:xlink="http://www.w3.org/1999/xlink" width="500" zoomAndPan="magnify" viewBox="0 0 375 374.999991" height="500" preserveAspectRatio="xMidYMid meet" version="1.0"><defs><clipPath id="ab2775a318"><path d="M 0 97.5 L 375 97.5 L 375 277.5 L 0 277.5 Z M 0 97.5 " clip-rule="nonzero"/></clipPath></defs><g clip-path="url(#ab2775a318)"><path fill="#e9b546" d="M 283.210938 186.972656 C 284.265625 200.085938 275.824219 223.449219 259.695312 223.75 L 258.941406 220.132812 C 262.863281 218.925781 266.480469 217.71875 269.191406 213.800781 C 271.152344 210.9375 272.507812 204.15625 273.261719 197.222656 C 274.015625 189.988281 274.316406 182.148438 273.714844 177.777344 C 278.386719 173.707031 298.132812 161.652344 303.558594 160.746094 C 290.894531 157.882812 276.277344 167.226562 267.535156 175.820312 C 268.4375 179.585938 267.988281 184.109375 267.835938 188.480469 C 258.039062 191.496094 251.257812 188.027344 247.789062 185.617188 C 247.789062 174.160156 246.734375 141.605469 234.074219 142.507812 C 241.308594 148.6875 242.363281 178.230469 241.910156 187.273438 C 241.15625 200.386719 236.183594 217.417969 234.375 225.558594 C 233.472656 229.476562 234.675781 232.941406 238.292969 235.957031 C 244.171875 240.929688 253.667969 249.523438 255.777344 251.480469 C 262.863281 258.113281 269.796875 265.199219 274.167969 270.925781 L 266.480469 270.925781 C 257.285156 257.660156 230.757812 237.011719 217.492188 229.023438 C 225.480469 210.636719 216.890625 200.386719 206.792969 188.628906 C 196.394531 176.574219 189.308594 177.929688 183.28125 155.921875 C 182.976562 156.675781 182.527344 160.898438 182.226562 164.664062 C 178.910156 156.226562 178.605469 146.429688 181.921875 138.136719 C 140.171875 161.652344 87.417969 188.480469 40.695312 175.214844 C 73.703125 179.4375 105.957031 165.269531 132.183594 148.085938 C 145.597656 139.191406 156 131.507812 165.644531 125.628906 C 173.785156 120.503906 181.019531 116.132812 188.40625 113.570312 C 200.011719 109.351562 211.917969 109.199219 226.539062 113.117188 C 241.308594 117.488281 252.160156 126.984375 259.246094 130.902344 C 271.453125 139.796875 290.746094 145.976562 304.007812 135.726562 C 309.285156 131.65625 323.300781 120.050781 331.140625 119.449219 C 330.085938 116.433594 324.808594 107.238281 320.589844 107.089844 C 321.191406 109.5 326.015625 118.242188 324.207031 118.09375 C 322.097656 114.625 319.082031 108.746094 318.175781 103.019531 C 328.425781 104.375 331.289062 111.914062 335.660156 118.695312 C 348.320312 123.667969 355.558594 129.394531 353.898438 138.136719 L 367.164062 149.441406 L 361.585938 158.484375 C 358.117188 159.089844 352.390625 157.582031 351.335938 154.867188 C 351.035156 153.964844 352.390625 151.550781 351.636719 150.046875 C 342.59375 157.582031 332.949219 153.964844 325.261719 143.714844 C 319.382812 161.199219 301.144531 178.078125 283.359375 186.820312 Z M 337.167969 131.203125 C 336.867188 130.753906 339.128906 126.832031 346.816406 131.054688 C 349.679688 132.710938 348.625 137.535156 344.101562 137.535156 C 342.894531 137.535156 340.03125 131.808594 337.167969 131.203125 Z M 319.230469 118.996094 C 316.972656 118.542969 302.804688 128.792969 300.996094 130.300781 C 290.292969 138.589844 272.660156 131.65625 263.164062 125.328125 C 256.53125 121.105469 243.417969 112.816406 228.195312 106.636719 C 209.957031 102.113281 197.296875 102.71875 184.183594 108.292969 C 177.25 111.160156 170.167969 115.078125 162.027344 119.902344 C 152.832031 125.328125 141.53125 133.164062 127.964844 141.753906 C 82.296875 170.84375 42.351562 180.792969 0 150.195312 C 11.90625 188.179688 57.878906 189.535156 90.886719 183.503906 C 114.25 179.285156 140.625 168.886719 172.730469 150.496094 C 170.316406 176.421875 190.363281 183.503906 204.382812 197.824219 C 214.480469 210.785156 218.550781 216.964844 208.148438 231.285156 C 225.785156 240.628906 251.859375 260.675781 261.808594 277.253906 L 286.074219 277.253906 C 281.25 268.515625 271.300781 257.660156 260.449219 247.261719 C 253.816406 240.78125 246.132812 235.203125 241.15625 228.421875 C 242.515625 222.390625 246.433594 209.128906 247.488281 194.507812 C 251.859375 196.316406 259.09375 197.824219 267.683594 195.714844 C 267.234375 199.332031 266.328125 207.621094 264.367188 210.484375 C 262.257812 213.652344 255.929688 215.007812 252.160156 216.210938 L 255.175781 228.570312 C 268.589844 228.875 274.46875 224.199219 282.003906 212.898438 C 286.074219 206.414062 288.484375 196.921875 289.238281 190.589844 C 305.96875 183.054688 318.480469 168.433594 326.769531 154.265625 C 332.648438 159.238281 340.636719 161.5 348.171875 159.238281 C 351.488281 163.609375 357.96875 165.117188 364.601562 165.269531 L 375 148.839844 L 359.625 134.671875 C 359.625 134.519531 359.625 134.371094 359.476562 133.917969 C 356.914062 124.574219 346.816406 118.242188 340.03125 113.722656 C 330.988281 100.457031 327.070312 96.386719 311.996094 97.59375 C 312.601562 100.910156 315.011719 112.0625 319.382812 118.84375 Z M 319.230469 118.996094 " fill-opacity="1" fill-rule="nonzero"/></g></svg>